<svg xmlns="http://www.w3.org/2000/svg" xmlns:xlink="http://www.w3.org/1999/xlink" width="819.4666" height="191.7701" viewBox="0 0 819.4666 191.7701"><defs><style>.a{fill:url(#a);}.b{fill:url(#b);}.c{fill:url(#c);}.d{fill:url(#d);}.e{fill:url(#e);}.f{fill:url(#f);}.g{fill:url(#g);}.h{fill:url(#h);}.i{fill:url(#i);}.j{fill:url(#j);}</style><linearGradient id="a" x1="-17.0182" y1="163.0614" x2="441.3655" y2="-295.3223" gradientUnits="userSpaceOnUse"><stop offset="0" stop-color="#00ea7b"/><stop offset="0.2311" stop-color="#00e77f"/><stop offset="0.4481" stop-color="#00dc8a"/><stop offset="0.6594" stop-color="#00cb9d"/><stop offset="0.8659" stop-color="#00b3b8"/><stop offset="1" stop-color="#009fcd"/></linearGradient><linearGradient id="b" x1="49.4364" y1="229.516" x2="507.8201" y2="-228.8677" xlink:href="#a"/><linearGradient id="c" x1="90.9177" y1="270.9974" x2="549.3014" y2="-187.3864" xlink:href="#a"/><linearGradient id="d" x1="139.3711" y1="319.4507" x2="597.7548" y2="-138.933" xlink:href="#a"/><linearGradient id="e" x1="175.5617" y1="355.6413" x2="633.9454" y2="-102.7424" xlink:href="#a"/><linearGradient id="f" x1="229.6814" y1="409.761" x2="688.0651" y2="-48.6227" xlink:href="#a"/><linearGradient id="g" x1="264.103" y1="444.1826" x2="722.4867" y2="-14.2011" xlink:href="#a"/><linearGradient id="h" x1="291.1438" y1="471.2234" x2="749.5275" y2="12.8397" xlink:href="#a"/><linearGradient id="i" x1="340.0235" y1="520.1031" x2="798.4072" y2="61.7194" xlink:href="#a"/><linearGradient id="j" x1="372.9521" y1="553.0318" x2="831.3359" y2="94.648" xlink:href="#a"/></defs><title>portfolio-plus-logo</title><path class="a" d="M88.5355,55.9149A45.4463,45.4463,0,0,1,106.23,73.7011q6.4164,11.4612,6.4177,26.6789,0,15.2222-6.4177,26.68a45.4312,45.4312,0,0,1-17.6945,17.7854,50.2666,50.2666,0,0,1-25.0289,6.326q-18.8878,0-29.7045-11.9183v46.0241H5.1973V51.0559H32.5185V62.4244Q43.15,49.5916,63.5066,49.5889A50.2718,50.2718,0,0,1,88.5355,55.9149Zm-11.9187,64.36q7.0567-7.4262,7.06-19.8948,0-12.4668-7.06-19.8947-7.0608-7.4262-18.061-7.4261T40.4945,80.4853q-7.0608,7.4262-7.0593,19.8947,0,12.4715,7.0593,19.8948,7.0569,7.4261,18.0613,7.4265Q69.5575,127.7013,76.6168,120.2748Z"/><path class="b" d="M150.6928,144.6625a48.3738,48.3738,0,0,1-19.3445-18.0617A49.7423,49.7423,0,0,1,124.38,100.38a49.75,49.75,0,0,1,6.968-26.2207,48.3864,48.3864,0,0,1,19.3445-18.0609,59.1716,59.1716,0,0,1,27.9628-6.5095,58.6386,58.6386,0,0,1,27.8711,6.5095A48.5693,48.5693,0,0,1,225.78,74.1593a49.7744,49.7744,0,0,1,6.9679,26.2207,49.767,49.767,0,0,1-6.9679,26.2208,48.5566,48.5566,0,0,1-19.2528,18.0617,58.6089,58.6089,0,0,1-27.8711,6.5086A59.1416,59.1416,0,0,1,150.6928,144.6625Zm46.0241-24.3877q7.0563-7.4262,7.0593-19.8948,0-12.4668-7.0593-19.8947-7.0614-7.4262-18.0613-7.4261-11.0016,0-18.153,7.4261t-7.151,19.8947q0,12.4715,7.151,19.8948,7.1515,7.4261,18.153,7.4265T196.7169,120.2748Z"/><path class="c" d="M288.3976,53.2562a51.3852,51.3852,0,0,1,20.0781-3.6673V75.9931q-4.7707-.3654-6.4177-.3668-12.2871,0-19.2532,6.8762-6.9705,6.8759-6.9675,20.628v46.574H247.2325V51.0559h27.3212V64.0744A31.8028,31.8028,0,0,1,288.3976,53.2562Z"/><path class="d" d="M401.8068,144.9372a29.3634,29.3634,0,0,1-10.36,4.676,52.5174,52.5174,0,0,1-12.9271,1.5579q-17.6025,0-27.2292-8.9844-9.6265-8.9822-9.6264-26.4038V75.2594H326.4449V53.2562H341.664v-24.02h28.6044V53.2562h24.57V75.2594h-24.57v40.1567q0,6.2353,3.2087,9.626,3.2063,3.3951,9.0765,3.3921a18.3782,18.3782,0,0,0,11.5519-3.6669Z"/><path class="e" d="M453.8806,53.2562h25.3041V75.2594h-24.57v74.4451H426.01V75.2594H410.79V53.2562H426.01V48.8553q0-16.8678,9.9936-26.7706,9.9913-9.9018,28.1459-9.9015a52.4944,52.4944,0,0,1,12.1938,1.3752,29.6514,29.6514,0,0,1,9.626,3.9423l-7.5178,20.72A19.5743,19.5743,0,0,0,466.9,34.7367q-13.0212,0-13.0189,14.302Z"/><path class="f" d="M511.183,144.6625a48.3726,48.3726,0,0,1-19.3448-18.0617,49.742,49.742,0,0,1-6.9676-26.2208,49.7494,49.7494,0,0,1,6.9676-26.2207A48.3852,48.3852,0,0,1,511.183,56.0984a63.1169,63.1169,0,0,1,55.8336,0,48.5693,48.5693,0,0,1,19.2528,18.0609,49.7779,49.7779,0,0,1,6.9675,26.2207,49.77,49.77,0,0,1-6.9675,26.2208,48.5566,48.5566,0,0,1-19.2528,18.0617,63.1248,63.1248,0,0,1-55.8336,0Zm46.0234-24.3877q7.0573-7.4262,7.06-19.8948,0-12.4668-7.06-19.8947-7.0608-7.4262-18.0609-7.4261t-18.153,7.4261q-7.1511,7.4262-7.151,19.8947,0,12.4715,7.151,19.8948,7.151,7.4261,18.153,7.4265T557.2064,120.2748Z"/><path class="g" d="M612.3063,13.65H640.91V149.7045h-28.604Z"/><path class="h" d="M668.9641,32.7195a14.8612,14.8612,0,0,1-4.9508-11.3685,14.87,14.87,0,0,1,4.9508-11.3681Q673.9152,5.4016,681.8,5.3986q7.8816,0,12.8354,4.4009a14.1081,14.1081,0,0,1,4.9508,11.0016,15.5687,15.5687,0,0,1-4.9508,11.8267q-4.9511,4.676-12.8354,4.676Q673.9133,37.3038,668.9641,32.7195Zm-1.4666,18.3364h28.604v98.6486h-28.604Z"/><path class="i" d="M807.8271,73.1918A46.3017,46.3017,0,0,0,788.7529,55.401q-12.28-6.3219-28.4167-6.3219-16.14,0-28.4231,6.3219a45.6693,45.6693,0,0,0-18.9785,17.7908q-6.6954,11.456-6.6922,26.4945,0,15.2206,6.6922,26.68A45.6143,45.6143,0,0,0,731.9131,144.15q12.28,6.3317,28.4231,6.3284,16.1305,0,28.4167-6.3284a46.2453,46.2453,0,0,0,19.0742-17.7843q6.7818-11.4561,6.7818-26.68Q814.6089,84.6479,807.8271,73.1918Zm-18.1094,32.8219H767.9126v21.8051H753.07V106.0137H731.1336V91.04H753.07V69.1037h14.8426V91.04h21.8051Z"/><rect class="j" x="710.7351" y="157.4954" width="99.381" height="16.1256"/></svg>